<svg xmlns="http://www.w3.org/2000/svg" width="41.066" height="41.545" viewBox="0 0 41.066 41.545"><defs><style>.a{fill:#ff8900;}</style></defs><g transform="translate(-417.98 -292.819)"><path class="a" d="M459.046,492.473v.013a1.272,1.272,0,0,1-1.275,1.265H419.255a1.272,1.272,0,0,1-1.275-1.265v-.013a20.533,20.533,0,1,1,41.066,0Z" transform="translate(0 -159.387)"/><g transform="translate(425.41 292.819)"><path class="a" d="M498.519,311.561a20.469,20.469,0,0,1,7.945,1.594,2.956,2.956,0,0,0,3.793-1.4,13.1,13.1,0,1,0-23.48-.009,2.959,2.959,0,0,0,3.8,1.41A20.465,20.465,0,0,1,498.519,311.561Z" transform="translate(-485.416 -292.819)"/></g></g></svg>