<svg xmlns="http://www.w3.org/2000/svg" width="22.364" height="22.624" viewBox="0 0 22.364 22.624"><defs><style>.a{fill:#ff8900;}</style></defs><g transform="translate(-417.98 -292.819)"><path class="a" d="M440.344,483.122v.007a.693.693,0,0,1-.694.689H418.674a.693.693,0,0,1-.694-.689v-.007a11.182,11.182,0,1,1,22.364,0Z" transform="translate(0 -168.374)"/><g transform="translate(422.026 292.819)"><path class="a" d="M492.552,303.026a11.147,11.147,0,0,1,4.327.868,1.61,1.61,0,0,0,2.066-.764,7.136,7.136,0,1,0-12.787,0,1.611,1.611,0,0,0,2.068.768A11.145,11.145,0,0,1,492.552,303.026Z" transform="translate(-485.416 -292.819)"/></g></g></svg>