<svg xmlns="http://www.w3.org/2000/svg" width="815.5" height="308.052" viewBox="0 0 815.5 308.052"><defs><style>.a{opacity:0.052;}.b{fill:#fdfffe;}</style></defs><g class="a" transform="translate(-357 -379)"><g transform="translate(357 379)"><path class="b" d="M290.926,45.607,257.208,4.98a13.776,13.776,0,0,0-19.4-1.8L130.413,92.3l1.842,2.387a6.891,6.891,0,0,1-1.242,9.666l-15.235,11.78a6.891,6.891,0,0,1-9.666-1.242l-1.144-1.482-5.144,4.261c-1.526-.076-3.051-.12-4.6-.12a95.226,95.226,0,1,0,89.743,63.261,22.233,22.233,0,0,0,4.457-3.095l13.818-12.456A22.444,22.444,0,0,0,205.51,134.4l83.618-69.386a13.776,13.776,0,0,0,1.8-19.4ZM95.246,267.288A54.489,54.489,0,1,1,149.735,212.8a54.488,54.488,0,0,1-54.489,54.489Z" transform="translate(0 -0.004)"/><circle class="b" cx="42.458" cy="42.458" r="42.458" transform="translate(52.789 170.349)"/><path class="b" d="M8.379,12.454A2.74,2.74,0,0,1,6.3,11.5L-1.856,2.017A2.746,2.746,0,1,1,2.309-1.564L10.46,7.917a2.746,2.746,0,0,1-2.081,4.537Z" transform="translate(101.613 87.496)"/><path class="b" d="M12.029,7.114a2.742,2.742,0,0,1-.909-.156L-.683,2.818A2.746,2.746,0,1,1,1.136-2.365l11.8,4.141a2.747,2.747,0,0,1-.909,5.338Z" transform="translate(90.868 99.189)"/><path class="b" d="M2.544,15.266a2.747,2.747,0,0,1-2.7-2.237L-2.472.736a2.746,2.746,0,1,1,5.4-1.019L5.246,12.009a2.749,2.749,0,0,1-2.7,3.256Z" transform="translate(114.429 78.429)"/><path class="b" d="M364.541,118.954H296.147a4.546,4.546,0,0,1-5.307-5.307V18.117a5.606,5.606,0,0,1,1.253-4.054,5.571,5.571,0,0,1,4.054-1.253h68.394a5.606,5.606,0,0,1,4.054,1.253,5.558,5.558,0,0,1,1.253,4.054V35.368a5.589,5.589,0,0,1-1.253,4.054,5.558,5.558,0,0,1-4.054,1.253H323.86V52.031h28.748a5.607,5.607,0,0,1,4.054,1.253,5.558,5.558,0,0,1,1.253,4.054v15.78a5.558,5.558,0,0,1-1.253,4.054,5.559,5.559,0,0,1-4.054,1.253H323.86V91.1h40.681a4.546,4.546,0,0,1,5.307,5.307v17.251a4.546,4.546,0,0,1-5.307,5.307Zm-7.955-14.745h-48.2V66.024h36.257V64.552H308.385v-37h48.2V26.083H306.9v79.608h49.683V104.22Z" transform="translate(26.11 1.145)"/><path class="b" d="M411.11,113.646a4.546,4.546,0,0,1-5.307,5.307H383.4a4.546,4.546,0,0,1-5.307-5.307V97.877q0-6.784,1.177-10.178a33.1,33.1,0,0,1,4.424-7.955L395.635,63.68,383.691,47.616a29.354,29.354,0,0,1-4.5-7.955,34.922,34.922,0,0,1-1.1-10.178V18.127a5.558,5.558,0,0,1,1.253-4.054A5.606,5.606,0,0,1,383.4,12.82h22.7a5.606,5.606,0,0,1,4.054,1.253,5.558,5.558,0,0,1,1.253,4.054V28.295c0,.981.043,2.016.142,3.095a6.353,6.353,0,0,0,1.177,3.095l6.484,9.285a7.46,7.46,0,0,0,1.547,1.842,3.018,3.018,0,0,0,1.994.665h1.766a2.74,2.74,0,0,0,1.918-.665,13.308,13.308,0,0,0,1.624-1.842l6.637-9.285a6.353,6.353,0,0,0,1.177-3.095c.1-1.079.142-2.114.142-3.095V18.127a5.558,5.558,0,0,1,1.253-4.054,5.558,5.558,0,0,1,4.054-1.253h22.406a5.606,5.606,0,0,1,4.054,1.253,5.607,5.607,0,0,1,1.253,4.054V29.483q0,6.784-1.177,10.178a33.274,33.274,0,0,1-4.425,7.955L451.486,63.832,463.43,79.754a29.511,29.511,0,0,1,4.5,7.955,34.969,34.969,0,0,1,1.1,10.178v15.769a5.608,5.608,0,0,1-1.253,4.054,5.542,5.542,0,0,1-4.054,1.253H441.319a4.546,4.546,0,0,1-5.307-5.307V99.065c0-.981-.054-2.016-.142-3.095a6.355,6.355,0,0,0-1.177-3.095l-6.484-9.285a8.866,8.866,0,0,0-1.624-1.918,2.984,2.984,0,0,0-1.918-.588h-2.06a2.984,2.984,0,0,0-1.918.588,8.592,8.592,0,0,0-1.624,1.918l-6.637,9.285a6.354,6.354,0,0,0-1.177,3.095c-.1,1.079-.152,2.114-.152,3.095v14.592ZM395.341,99.054a58.562,58.562,0,0,1,.294-5.972,9.275,9.275,0,0,1,1.765-4.795L414.794,64.41h17.687l17.251,23.877a10.054,10.054,0,0,1,1.766,4.871,56.627,56.627,0,0,1,.294,5.9v6.637h1.471V99.054a60.065,60.065,0,0,0-.294-6.114,11.082,11.082,0,0,0-1.918-5.231L433.658,63.832,451.05,39.661a11.13,11.13,0,0,0,1.918-5.231,60.221,60.221,0,0,0,.294-6.114V26.1h-1.471v2.212a56.322,56.322,0,0,1-.294,5.9,10.094,10.094,0,0,1-1.766,4.871l-17.1,23.877H415.088L397.4,39.084a10.012,10.012,0,0,1-1.765-4.871,56.44,56.44,0,0,1-.294-5.9V26.1H393.87v2.212a59.872,59.872,0,0,0,.294,6.114,10.967,10.967,0,0,0,1.918,5.231l17.687,23.877L396.082,87.709a9.929,9.929,0,0,0-1.994,5.231q-.213,2.877-.218,6.114v6.637h1.471Z" transform="translate(33.943 1.146)"/><path class="b" d="M527.586,118.954H503.709a4.546,4.546,0,0,1-5.307-5.307V41.264H476.737a5.559,5.559,0,0,1-4.054-1.253,5.541,5.541,0,0,1-1.253-4.054V18.117a5.558,5.558,0,0,1,1.253-4.054,5.541,5.541,0,0,1,4.054-1.253h77.832a5.606,5.606,0,0,1,4.054,1.253,5.606,5.606,0,0,1,1.253,4.054v17.84a5.588,5.588,0,0,1-1.253,4.054,5.589,5.589,0,0,1-4.054,1.253H532.893v72.383a4.546,4.546,0,0,1-5.307,5.307Zm-12.674-13.263h1.471V27.555H546.6V26.083h-61.91v1.471h30.219v78.137Z" transform="translate(42.322 1.145)"/><path class="b" d="M593.717,118.954h-22.7a4.546,4.546,0,0,1-5.307-5.307V18.117a5.559,5.559,0,0,1,1.253-4.054,5.543,5.543,0,0,1,4.054-1.253h49.094q16.51,0,22.776,6.855t6.267,17.763v6.778a26.907,26.907,0,0,1-1.842,10.538,11.49,11.49,0,0,1-6.408,6.266,19.451,19.451,0,0,1,12.9,6.484q4.937,5.607,4.937,14.886v31.255a5.606,5.606,0,0,1-1.253,4.054,5.541,5.541,0,0,1-4.054,1.253H630.584a4.546,4.546,0,0,1-5.307-5.307V91.078a7.5,7.5,0,0,0-1.253-4.784c-.839-1.035-2.289-1.547-4.348-1.547h-20.64v28.89a4.546,4.546,0,0,1-5.307,5.307ZM583.1,105.691v-34.2h41.717q8.4,0,12.38,3.618t3.978,10.832V105.7h1.471V85.945q0-7.667-4.425-11.715t-13.415-4.054h-1.624q5.312-1.618,7.073-5.972a29.867,29.867,0,0,0,1.765-11.127V42.91a17.814,17.814,0,0,0-4.13-12.02c-2.757-3.193-6.975-4.784-12.685-4.784H581.6v79.608h1.471ZM615.24,27.555q7.814,0,11.573,4.272a16.145,16.145,0,0,1,3.76,11.061v10.32q0,8.108-3.095,12.532T615.24,70.165H583.1V27.555ZM599.024,39.346V58.221h11.062q3.825,0,5.154-1.994a8.734,8.734,0,0,0,1.33-4.937V46.277a8.709,8.709,0,0,0-1.33-4.937q-1.324-1.994-5.154-1.994Z" transform="translate(50.786 1.145)"/><path class="b" d="M696.47,113.647a5.607,5.607,0,0,1-1.253,4.054,5.542,5.542,0,0,1-4.054,1.253H669.487a4.546,4.546,0,0,1-5.307-5.307V74.731a43.494,43.494,0,0,1,1.406-10.178,113.427,113.427,0,0,1,4.348-13.415L682.761,17.67a6.892,6.892,0,0,1,2.724-3.683,8.766,8.766,0,0,1,4.784-1.177h39.657a8.484,8.484,0,0,1,4.642,1.177,6.893,6.893,0,0,1,2.725,3.683l12.826,33.467a113.342,113.342,0,0,1,4.348,13.415,43.505,43.505,0,0,1,1.406,10.178v38.916a5.606,5.606,0,0,1-1.253,4.054,5.54,5.54,0,0,1-4.054,1.253H728.3a6.376,6.376,0,0,1-4.348-1.253,5.16,5.16,0,0,1-1.4-4.054V93.006H696.47Zm42.305-7.955h1.471V74.3a40.064,40.064,0,0,0-.665-7.6,44.551,44.551,0,0,0-1.842-6.713l-10.168-24.03a35.837,35.837,0,0,0-3.76-7.073c-1.33-1.864-3.607-2.8-6.854-2.8h-14.45q-5.019,0-7.073,2.8a30.043,30.043,0,0,0-3.683,6.931L682.314,60a42.962,42.962,0,0,0-1.842,6.713,40.986,40.986,0,0,0-.665,7.6v31.4h1.471V80.343h57.5V105.7Zm-57.5-31.4a38.134,38.134,0,0,1,.665-7.378,47.175,47.175,0,0,1,1.689-6.342l9.438-24.182a32.539,32.539,0,0,1,3.237-6.266c1.177-1.722,3.248-2.583,6.19-2.583h14.45q4.136,0,5.9,2.583a36.874,36.874,0,0,1,3.389,6.408L736.4,60.564a44.823,44.823,0,0,1,1.689,6.342,38.135,38.135,0,0,1,.665,7.378V78.85h-57.5V74.284Zm23.583-30.514L697.93,66.187h23.147l-6.931-22.406a5.546,5.546,0,0,0-1.253-1.918,2.269,2.269,0,0,0-1.548-.588h-3.683a2.25,2.25,0,0,0-1.548.588A5.711,5.711,0,0,0,704.861,43.781Z" transform="translate(59.626 1.145)"/><path class="b" d="M362.8,280.787H332.981c-2.332,0-4.021-.523-5.057-1.569s-1.569-2.724-1.569-5.057V183.787H299.3q-3.5,0-5.068-1.569c-1.046-1.046-1.569-2.724-1.569-5.057V154.886q0-3.5,1.569-5.057c1.046-1.035,2.725-1.569,5.068-1.569h97.186q3.5,0,5.057,1.569c1.046,1.046,1.569,2.735,1.569,5.057v22.275c0,2.332-.523,4.021-1.569,5.057s-2.735,1.569-5.057,1.569H369.423v90.375q0,3.5-1.569,5.057c-1.046,1.035-2.735,1.569-5.068,1.569Zm-15.823-16.565h1.842V166.677h37.728v-1.842H309.235v1.842h37.728v97.546Z" transform="translate(26.273 13.305)"/><path class="b" d="M414.317,280.787q-3.5,0-5.067-1.569c-1.046-1.046-1.569-2.724-1.569-5.057v-21.9q0-3.5,1.569-5.057c1.046-1.035,2.724-1.569,5.067-1.569h18.221V183.787H414.317q-3.5,0-5.067-1.569c-1.046-1.046-1.569-2.724-1.569-5.057V154.886q0-3.5,1.569-5.057c1.046-1.035,2.724-1.569,5.067-1.569h78.409q3.5,0,5.057,1.569t1.569,5.057v22.275q0,3.5-1.569,5.057c-1.046,1.035-2.735,1.569-5.057,1.569h-17.85v61.845h17.85q3.5,0,5.057,1.569c1.046,1.046,1.569,2.735,1.569,5.057v21.9c0,2.332-.523,4.021-1.569,5.057s-2.735,1.569-5.057,1.569Zm68.47-16.565v-1.842h-28.16V166.666h28.16v-1.842H424.255v1.842h28.53v95.715h-28.53v1.842Z" transform="translate(36.599 13.305)"/><path class="b" d="M546.625,280.786H519.2q-3.5,0-5.056-1.569c-1.046-1.046-1.569-2.724-1.569-5.057V154.9q0-3.5,1.569-5.057c1.046-1.035,2.724-1.569,5.056-1.569h29.631a8.661,8.661,0,0,1,4.871,1.286,12.16,12.16,0,0,1,3.585,4.228l16.564,30a13.594,13.594,0,0,0,1.569,2.387,2.2,2.2,0,0,0,1.744.741h1.656a2.152,2.152,0,0,0,1.743-.741,15.456,15.456,0,0,0,1.569-2.387l16.379-30a12.072,12.072,0,0,1,3.6-4.228,8.673,8.673,0,0,1,4.882-1.286H636.8c2.321,0,4.01.523,5.056,1.569s1.558,2.735,1.558,5.057V274.161q0,3.5-1.558,5.057c-1.046,1.046-2.735,1.569-5.056,1.569H608.459q-3.5,0-5.057-1.569c-1.046-1.046-1.558-2.724-1.558-5.057V209.374L590.99,229.436a11.252,11.252,0,0,1-3.956,4.512,11.058,11.058,0,0,1-5.8,1.384H573.88a9.854,9.854,0,0,1-9.753-5.9l-10.854-20.063v64.787q0,3.5-1.569,5.057c-1.046,1.046-2.736,1.569-5.057,1.569Zm30.742-70.857q-3.318,0-4.784-1.471a44.9,44.9,0,0,1-4.6-6.255l-22.46-34.23a5.936,5.936,0,0,0-2.572-2.485,7.357,7.357,0,0,0-2.942-.643h-3.128a4.469,4.469,0,0,0-3.585,1.384,6.51,6.51,0,0,0-1.2,4.326v93.688h1.842V170.556a6.3,6.3,0,0,1,.556-2.67,2.366,2.366,0,0,1,2.4-1.2h2.757a6.568,6.568,0,0,1,2.3.371,4.854,4.854,0,0,1,2.114,2.212l22.46,33.87a56.013,56.013,0,0,0,5.067,6.811q1.749,1.847,5.8,1.842t5.8-1.842a56.315,56.315,0,0,0,5.068-6.811L610.7,169.27a5.2,5.2,0,0,1,2.027-2.212,6.057,6.057,0,0,1,2.212-.371h2.768a2.578,2.578,0,0,1,2.485,1.2,5.468,5.468,0,0,1,.643,2.67v93.688h1.842V170.556a6.531,6.531,0,0,0-1.2-4.326,4.7,4.7,0,0,0-3.771-1.384h-3.138a6.772,6.772,0,0,0-2.855.643,6.085,6.085,0,0,0-2.485,2.485L586.784,202.2a45.834,45.834,0,0,1-4.6,6.255c-.981.981-2.572,1.471-4.784,1.471Z" transform="translate(46.016 13.306)"/><path class="b" d="M747.991,280.786H662.6q-3.5,0-5.068-1.569c-1.046-1.046-1.569-2.724-1.569-5.057V154.9q0-3.5,1.569-5.057c1.046-1.035,2.725-1.569,5.068-1.569h85.394q3.5,0,5.068,1.569t1.569,5.057V176.43q0,3.5-1.569,5.057c-1.046,1.035-2.736,1.569-5.068,1.569H697.2v14.167h35.886q3.5,0,5.067,1.569c1.046,1.046,1.569,2.735,1.569,5.057v19.692q0,3.5-1.569,5.057t-5.067,1.569H697.2V246h50.794q3.5,0,5.068,1.569t1.569,5.057v21.534q0,3.5-1.569,5.057C752.012,280.252,750.323,280.786,747.991,280.786Zm-9.938-18.406H677.864V214.713h45.28v-1.842h-45.28v-46.2h60.188v-1.842h-62.03v99.387h62.03Z" transform="translate(58.888 13.306)"/></g></g></svg>