<svg xmlns="http://www.w3.org/2000/svg" width="210.856" height="79.65" viewBox="0 0 210.856 79.65"><defs><style>.a{fill:#fff;}</style></defs><g transform="translate(0 0)"><path class="a" d="M75.222,11.8,66.5,1.291A3.562,3.562,0,0,0,61.489.826L33.72,23.869l.476.617a1.782,1.782,0,0,1-.321,2.5l-3.939,3.046a1.782,1.782,0,0,1-2.5-.321l-.3-.383-1.33,1.1c-.394-.02-.789-.031-1.189-.031a24.622,24.622,0,1,0,23.2,16.357,5.748,5.748,0,0,0,1.152-.8l3.573-3.221a5.8,5.8,0,0,0,.586-7.98l21.62-17.94a3.562,3.562,0,0,0,.465-5.016Zm-50.6,57.318A14.089,14.089,0,1,1,38.716,55.025,14.088,14.088,0,0,1,24.627,69.114Z" transform="translate(0 -0.004)"/><circle class="a" cx="10.978" cy="10.978" r="10.978" transform="translate(13.649 44.046)"/><path class="a" d="M.3,1.352A.708.708,0,0,1-.241,1.1L-2.348-1.347a.71.71,0,0,1,.076-1,.71.71,0,0,1,1,.076L.836.179A.71.71,0,0,1,.3,1.352Z" transform="translate(28.142 24.491)"/><path class="a" d="M1.241-.029a.709.709,0,0,1-.235-.04L-2.046-1.14a.71.71,0,0,1-.435-.905.71.71,0,0,1,.905-.435L1.476-1.41A.71.71,0,0,1,1.911-.5.71.71,0,0,1,1.241-.029Z" transform="translate(25.364 27.515)"/><path class="a" d="M-1.211,2.078a.71.71,0,0,1-.7-.578l-.6-3.178a.71.71,0,0,1,.566-.829.71.71,0,0,1,.829.566l.6,3.178a.71.71,0,0,1-.566.829A.714.714,0,0,1-1.211,2.078Z" transform="translate(31.456 22.147)"/><path class="a" d="M309.9,40.255H292.212a1.175,1.175,0,0,1-1.372-1.372v-24.7a1.449,1.449,0,0,1,.324-1.048,1.441,1.441,0,0,1,1.048-.324H309.9a1.449,1.449,0,0,1,1.048.324,1.437,1.437,0,0,1,.324,1.048v4.46a1.445,1.445,0,0,1-.324,1.048,1.437,1.437,0,0,1-1.048.324H299.378v2.936h7.433a1.175,1.175,0,0,1,1.372,1.372V28.4a1.175,1.175,0,0,1-1.372,1.372h-7.433v3.277H309.9a1.175,1.175,0,0,1,1.372,1.372v4.46a1.175,1.175,0,0,1-1.372,1.372Zm-2.057-3.812H295.377V26.569h9.375v-.38h-9.375V16.622h12.463v-.38H294.993V36.826h12.846v-.38Z" transform="translate(-208.889 -9.202)"/><path class="a" d="M386.628,38.89a1.175,1.175,0,0,1-1.372,1.372h-5.793a1.175,1.175,0,0,1-1.372-1.372V34.812a8.55,8.55,0,0,1,.3-2.632,8.557,8.557,0,0,1,1.144-2.057l3.088-4.153-3.088-4.153a7.589,7.589,0,0,1-1.164-2.057,9.029,9.029,0,0,1-.285-2.632V14.192a1.437,1.437,0,0,1,.324-1.048,1.45,1.45,0,0,1,1.048-.324h5.869a1.45,1.45,0,0,1,1.048.324,1.437,1.437,0,0,1,.324,1.048v2.629c0,.254.011.521.037.8a1.642,1.642,0,0,0,.3.8l1.677,2.4a1.928,1.928,0,0,0,.4.476.78.78,0,0,0,.516.172h.456a.709.709,0,0,0,.5-.172,3.444,3.444,0,0,0,.42-.476l1.716-2.4a1.642,1.642,0,0,0,.3-.8c.025-.279.037-.547.037-.8V14.192a1.437,1.437,0,0,1,.324-1.048,1.437,1.437,0,0,1,1.048-.324h5.793a1.45,1.45,0,0,1,1.048.324,1.45,1.45,0,0,1,.324,1.048v2.936a8.55,8.55,0,0,1-.3,2.632,8.6,8.6,0,0,1-1.144,2.057l-3.088,4.193,3.088,4.117a7.63,7.63,0,0,1,1.164,2.057,9.044,9.044,0,0,1,.285,2.632v4.077a1.45,1.45,0,0,1-.324,1.048,1.433,1.433,0,0,1-1.048.324h-5.793a1.175,1.175,0,0,1-1.372-1.372V35.12c0-.254-.014-.521-.037-.8a1.643,1.643,0,0,0-.3-.8l-1.676-2.4a2.292,2.292,0,0,0-.42-.5.772.772,0,0,0-.5-.152H389.6a.772.772,0,0,0-.5.152,2.223,2.223,0,0,0-.42.5l-1.716,2.4a1.643,1.643,0,0,0-.3.8c-.025.279-.039.547-.039.8v3.773Zm-4.077-3.773a15.142,15.142,0,0,1,.076-1.544,2.4,2.4,0,0,1,.456-1.24l4.5-6.174h4.573l4.46,6.174a2.6,2.6,0,0,1,.456,1.26,14.642,14.642,0,0,1,.076,1.524v1.716h.38V35.117a15.53,15.53,0,0,0-.076-1.581,2.865,2.865,0,0,0-.5-1.353l-4.5-6.174,4.5-6.25a2.877,2.877,0,0,0,.5-1.353,15.57,15.57,0,0,0,.076-1.581v-.572h-.38v.572a14.563,14.563,0,0,1-.076,1.524,2.61,2.61,0,0,1-.456,1.26l-4.421,6.174h-4.537l-4.573-6.174a2.588,2.588,0,0,1-.456-1.26,14.594,14.594,0,0,1-.076-1.524v-.572h-.38v.572a15.481,15.481,0,0,0,.076,1.581,2.836,2.836,0,0,0,.5,1.353l4.573,6.174-4.573,6.25a2.567,2.567,0,0,0-.516,1.353q-.055.744-.056,1.581v1.716h.38Z" transform="translate(-271.554 -9.209)"/><path class="a" d="M485.95,40.255h-6.174a1.175,1.175,0,0,1-1.372-1.372V20.167h-5.6a1.437,1.437,0,0,1-1.048-.324,1.433,1.433,0,0,1-.324-1.048V14.182a1.437,1.437,0,0,1,.324-1.048,1.433,1.433,0,0,1,1.048-.324h20.124a1.45,1.45,0,0,1,1.048.324,1.45,1.45,0,0,1,.324,1.048v4.613a1.445,1.445,0,0,1-.324,1.048,1.445,1.445,0,0,1-1.048.324h-5.6V38.882a1.175,1.175,0,0,1-1.372,1.372Zm-3.277-3.429h.38v-20.2h7.814v-.38H474.859v.38h7.814v20.2Z" transform="translate(-338.594 -9.202)"/><path class="a" d="M572.952,40.255h-5.869a1.175,1.175,0,0,1-1.372-1.372v-24.7a1.437,1.437,0,0,1,.324-1.048,1.433,1.433,0,0,1,1.048-.324h12.694q4.269,0,5.889,1.772a6.546,6.546,0,0,1,1.62,4.593v1.753a6.957,6.957,0,0,1-.476,2.725,2.971,2.971,0,0,1-1.657,1.62,5.029,5.029,0,0,1,3.336,1.677,5.611,5.611,0,0,1,1.276,3.849V38.88a1.45,1.45,0,0,1-.324,1.048,1.433,1.433,0,0,1-1.048.324h-5.909a1.175,1.175,0,0,1-1.372-1.372V33.047a1.939,1.939,0,0,0-.324-1.237,1.373,1.373,0,0,0-1.124-.4h-5.337v7.47a1.175,1.175,0,0,1-1.372,1.372Zm-2.745-3.429V27.983h10.786a4.651,4.651,0,0,1,3.2.935,3.592,3.592,0,0,1,1.029,2.8v5.109h.38V31.72a3.9,3.9,0,0,0-1.144-3.029,4.992,4.992,0,0,0-3.469-1.048h-.42A2.668,2.668,0,0,0,582.4,26.1a7.721,7.721,0,0,0,.456-2.877V20.593a4.606,4.606,0,0,0-1.068-3.108,4.1,4.1,0,0,0-3.28-1.237h-8.69V36.831h.38Zm8.31-20.2a3.785,3.785,0,0,1,2.992,1.1,4.175,4.175,0,0,1,.972,2.86v2.668a5.613,5.613,0,0,1-.8,3.24q-.8,1.145-3.164,1.144h-8.31V16.622Zm-4.193,3.049v4.88h2.86a1.492,1.492,0,0,0,1.333-.516,2.259,2.259,0,0,0,.344-1.276v-1.3a2.252,2.252,0,0,0-.344-1.276,1.492,1.492,0,0,0-1.333-.516Z" transform="translate(-406.308 -9.202)"/><path class="a" d="M672.529,38.882a1.45,1.45,0,0,1-.324,1.048,1.433,1.433,0,0,1-1.048.324h-5.6a1.175,1.175,0,0,1-1.372-1.372V28.82a11.241,11.241,0,0,1,.364-2.632,29.321,29.321,0,0,1,1.124-3.469l3.317-8.653a1.782,1.782,0,0,1,.7-.952,2.267,2.267,0,0,1,1.237-.3h10.254a2.194,2.194,0,0,1,1.2.3,1.782,1.782,0,0,1,.7.952L686.4,22.72a29.313,29.313,0,0,1,1.124,3.469,11.247,11.247,0,0,1,.364,2.632V38.882a1.45,1.45,0,0,1-.324,1.048,1.433,1.433,0,0,1-1.048.324H680.76a1.649,1.649,0,0,1-1.124-.324,1.334,1.334,0,0,1-.361-1.048V33.546h-6.746Zm10.938-2.057h.38V28.708a10.357,10.357,0,0,0-.172-1.964,11.514,11.514,0,0,0-.476-1.736l-2.629-6.213a9.271,9.271,0,0,0-.972-1.829,2.027,2.027,0,0,0-1.772-.724H674.09a2.124,2.124,0,0,0-1.829.724,7.772,7.772,0,0,0-.952,1.792l-2.44,6.253a11.108,11.108,0,0,0-.476,1.736,10.593,10.593,0,0,0-.172,1.964v8.118h.38V30.271h14.866v6.557ZM668.6,28.708a9.858,9.858,0,0,1,.172-1.908,12.185,12.185,0,0,1,.437-1.64l2.44-6.253a8.415,8.415,0,0,1,.837-1.62,1.8,1.8,0,0,1,1.6-.668h3.736a1.711,1.711,0,0,1,1.524.668,9.529,9.529,0,0,1,.876,1.657l2.629,6.213a11.583,11.583,0,0,1,.437,1.64,9.858,9.858,0,0,1,.172,1.908v1.181H668.6V28.7Zm6.1-7.89-1.792,5.793h5.985L677.1,20.818a1.435,1.435,0,0,0-.324-.5.587.587,0,0,0-.4-.152h-.952a.582.582,0,0,0-.4.152A1.475,1.475,0,0,0,674.7,20.818Z" transform="translate(-477.032 -9.202)"/><path class="a" d="M310.795,182.526h-7.709a1.47,1.47,0,0,1-1.713-1.713V157.446h-7a1.47,1.47,0,0,1-1.716-1.713v-5.759a1.786,1.786,0,0,1,.406-1.307,1.805,1.805,0,0,1,1.31-.406H319.5a1.47,1.47,0,0,1,1.713,1.713v5.759a1.47,1.47,0,0,1-1.713,1.713h-7v23.367a1.785,1.785,0,0,1-.406,1.307,1.81,1.81,0,0,1-1.31.406Zm-4.091-4.283h.476V153.022h9.755v-.476H296.946v.476H306.7v25.222Z" transform="translate(-210.196 -106.486)"/><path class="a" d="M409.4,182.526a1.47,1.47,0,0,1-1.716-1.713V175.15a1.785,1.785,0,0,1,.406-1.307,1.805,1.805,0,0,1,1.31-.406h4.711V157.446H409.4a1.47,1.47,0,0,1-1.716-1.713v-5.759a1.785,1.785,0,0,1,.406-1.307,1.805,1.805,0,0,1,1.31-.406H429.67a1.47,1.47,0,0,1,1.713,1.713v5.759a1.785,1.785,0,0,1-.406,1.307,1.807,1.807,0,0,1-1.307.406h-4.615v15.991h4.615a1.47,1.47,0,0,1,1.713,1.713v5.664a1.785,1.785,0,0,1-.406,1.307,1.807,1.807,0,0,1-1.307.406H409.4Zm17.7-4.283v-.476h-7.281V153.019H427.1v-.476H411.966v.476h7.377v24.748h-7.377v.476Z" transform="translate(-292.807 -106.486)"/><path class="a" d="M521.375,182.534h-7.092a1.47,1.47,0,0,1-1.713-1.713V149.983a1.47,1.47,0,0,1,1.713-1.713h7.661a2.239,2.239,0,0,1,1.26.332,3.144,3.144,0,0,1,.927,1.093l4.283,7.757a3.52,3.52,0,0,0,.406.617.569.569,0,0,0,.451.192h.428a.556.556,0,0,0,.451-.192,3.994,3.994,0,0,0,.406-.617l4.235-7.757a3.123,3.123,0,0,1,.93-1.093,2.243,2.243,0,0,1,1.262-.332h7.709a1.466,1.466,0,0,1,1.71,1.713V180.82a1.466,1.466,0,0,1-1.71,1.713h-7.329a1.466,1.466,0,0,1-1.71-1.713V164.069l-2.806,5.187a2.908,2.908,0,0,1-1.023,1.167,2.859,2.859,0,0,1-1.5.358h-1.9a2.548,2.548,0,0,1-2.522-1.524l-2.807-5.187V180.82a1.47,1.47,0,0,1-1.713,1.713Zm7.949-18.321a1.7,1.7,0,0,1-1.237-.38,11.619,11.619,0,0,1-1.189-1.617l-5.807-8.85a1.535,1.535,0,0,0-.665-.642,1.9,1.9,0,0,0-.761-.166h-.809a1.156,1.156,0,0,0-.927.358,1.684,1.684,0,0,0-.31,1.119v24.224h.476V154.032a1.629,1.629,0,0,1,.144-.69.612.612,0,0,1,.62-.31h.713a1.7,1.7,0,0,1,.594.1,1.255,1.255,0,0,1,.547.572l5.807,8.758a14.5,14.5,0,0,0,1.31,1.761,2.6,2.6,0,0,0,3,0,14.558,14.558,0,0,0,1.31-1.761l5.8-8.758a1.344,1.344,0,0,1,.524-.572,1.567,1.567,0,0,1,.572-.1h.716a.667.667,0,0,1,.643.31,1.414,1.414,0,0,1,.166.69v24.224h.476V154.032a1.689,1.689,0,0,0-.31-1.119,1.216,1.216,0,0,0-.975-.358h-.811a1.752,1.752,0,0,0-.738.166,1.573,1.573,0,0,0-.642.642l-5.8,8.85a11.852,11.852,0,0,1-1.189,1.617,1.7,1.7,0,0,1-1.237.38Z" transform="translate(-368.142 -106.493)"/><path class="a" d="M679.756,182.534h-22.08a1.47,1.47,0,0,1-1.716-1.713V149.983a1.786,1.786,0,0,1,.406-1.307,1.805,1.805,0,0,1,1.31-.406h22.08a1.47,1.47,0,0,1,1.716,1.713v5.568a1.785,1.785,0,0,1-.406,1.307,1.81,1.81,0,0,1-1.31.406H666.622v3.663H675.9a1.47,1.47,0,0,1,1.716,1.713v5.092a1.47,1.47,0,0,1-1.716,1.713h-9.279v4.094h13.133a1.47,1.47,0,0,1,1.716,1.713v5.568a1.785,1.785,0,0,1-.406,1.307A1.81,1.81,0,0,1,679.756,182.534Zm-2.57-4.759H661.624V165.45h11.708v-.476H661.624V153.029h15.562v-.476H661.147v25.7h16.039Z" transform="translate(-471.128 -106.493)"/></g></svg>