<svg xmlns="http://www.w3.org/2000/svg" width="106.164" height="124.726" viewBox="0 0 106.164 124.726"><defs><style>.a{fill:#fff;fill-rule:evenodd;}</style></defs><path class="a" d="M46.7,105.541a5.571,5.571,0,0,1,3.45-2.428v.469c-.471.471-.471,1.019,0,1.019l2.974,1.488h.94l2.979-1.488c.471,0,.471-.548.471-1.019l-.471-.469c1.488.469,2.979.94,3.916,2.428a.537.537,0,0,1,.548.548h-.548c-.471,0-.94,0-.94.469l-.551,3.448a.489.489,0,0,0,.551.469l2.428,2.431c0,.469.469.469.94,0l.546-.471h0a10.356,10.356,0,0,1-1.486,5.407l-.471-.469c0-.548-.471-.548-1.017-.548l-2.974.548a1.361,1.361,0,0,0-.943.469l-1.486,2.9c0,.548,0,1.019.469,1.019l.551.469c-1.019,0-1.959.548-2.979.548s-1.959-.548-2.979-.548l.551-.469c.469,0,.469-.469.469-1.019l-1.486-2.9a.461.461,0,0,0-.471-.469l-3.45-.548c-.469,0-1.019,0-1.019.548v.469a10.3,10.3,0,0,1-1.411-5.407h0v.471a.884.884,0,0,0,1.411,0l2.51-2.431v-.469l-.551-3.448a.415.415,0,0,0-.471-.469h-.94a1.288,1.288,0,0,1,.94-.548ZM18.181,7.371a8.034,8.034,0,0,0,3.993,7.367c-1.019,1.411-2.508,3.916-2.508,3.916a34.63,34.63,0,0,0-6.893.94q0,.548-.471.548h-.471c-.469.471-1.019.471-1.019.94L1.019,30.875A7.969,7.969,0,0,0,0,33.851a2.693,2.693,0,0,0,1.493,2.431c4.933,4,10.809,9.4,11.749,11.28.551.548,1.017,1.488,1.959,1.488l.548,4.936-1.017,1.019,1.488,3.368-.471.548L12.774,87.361h1.957l-1.488,23.583c0,4.936.551,5.4,5.407,5.4,4.464.471,4.936-1.488,4.936-5.4l1.488-23.111h2.508L30.949,70.2l2.979-1.488,6.345,9.323,4.467-1.488,3.914,22.643v2.428a9.162,9.162,0,0,0-3.445,2.431,11.813,11.813,0,0,0-2.428,3.916,7.211,7.211,0,0,0-1.019,4.465c0,1.488,0,3.448,1.019,4.938a8.883,8.883,0,0,0,2.428,3.368c1.019,1.488,2.51,2.036,4,2.976a14.359,14.359,0,0,0,4.388,1.019,18.448,18.448,0,0,0,4.936-1.019c.94-.469,1.957-1.488,2.974-1.959h0c2.9-2.428,4.859-5.407,4.859-9.323.546-4.936-2.431-8.852-6.345-10.812,0-.94-1.019-2.428-1.019-3.916L57.979,74.124l2.036-.94L57.508,66.76a3.5,3.5,0,0,0-1.488-2.976l-15.2-13.24c-.546-.94-1.017-1.959-1.957-3.916l6.345-9.795a3.7,3.7,0,0,0,.551-3.916l-6.424-11.36c-.471-.94-1.488-1.411-2.979-1.959a49.521,49.521,0,0,1-5.407-.94s-1.486-2.508-2.428-3.916a7.562,7.562,0,0,0,4.938-7.367A6.831,6.831,0,0,0,26.562.01a8.468,8.468,0,0,0-8.381,7.364h0ZM81.17,81.019c-.548-.548-1.486-1.019-2.036-1.488v.94L77.174,81.49h0l-1.957-1.019v-.94c-.471.471-1.488.94-1.957,1.488l-.471.469h.471c.469-.469.469,0,.469,0V84l-1.411.94q0,.469-.551,0h0a3.429,3.429,0,0,0,1.022,2.9v-.471a.46.46,0,0,1,.471-.469l1.486.469a.417.417,0,0,1,.471.471l1.019,1.488s0,.548-.471.548h0a1.729,1.729,0,0,0,1.411.471,1.816,1.816,0,0,0,1.493-.471h0c-.474,0-.474-.548-.474-.548l.943-1.488q0-.471.551-.471l1.486-.469a.46.46,0,0,1,.471.469v.471a6.983,6.983,0,0,0,.94-2.9h0a.588.588,0,0,1-.94,0L80.63,84c-.471,0-.471-.548-.471-.548l.471-1.959h.548v-.469h0Zm15.2-53.041a6.276,6.276,0,0,1-1.959,3.916c.469.471.943,1.959,1.488,1.959.94,0,1.957.471,3.445.471v.548h.471a.414.414,0,0,1,.469.469l5.407,5.407a1.8,1.8,0,0,1,.471,1.488,1.726,1.726,0,0,1-.471,1.411c-2.9,2.039-6.345,4.936-6.345,5.955-.548.469-1.019.94-1.019.94l-.471,2.428.471.548-.94,1.959.469.469,1.488,15.2H98.326L98.8,84c.548,2.9,0,2.9-2.428,2.9s-2.979-.469-2.979-2.9l-.471-12.3H91.431l-1.957-9.872-1.488-.469-3.445,4.936-2.428-1.019-2.428,12.3v1.488a2.607,2.607,0,0,1,1.957.94c.94,1.019,1.488,1.488,1.488,2.508a3.767,3.767,0,0,1,.469,2.428,4.513,4.513,0,0,1-.469,2.428c0,1.019-.551,1.488-1.488,1.959a5.816,5.816,0,0,1-1.957,1.488,4.805,4.805,0,0,1-2.51.469,3.771,3.771,0,0,1-2.428-.469c-1.017-.469-1.486-.469-1.957-.94h0c-1.488-1.488-2.508-2.976-2.508-4.936a5.038,5.038,0,0,1,3.445-5.876c0-.548.471-1.488.471-1.959l.546-13.319H73.727l1.488-3.368c0-1.017,0-1.488.548-2.039l8.307-7.287a12,12,0,0,0,1.019-2.036l-3.445-5.407a1.534,1.534,0,0,1,0-1.959l3.445-6.345c0-.469.94-1.019,1.488-1.019a8.874,8.874,0,0,0,2.9-.471,7.486,7.486,0,0,0,1.488-1.959,4.255,4.255,0,0,1-2.979-3.916c0-2.505,1.488-4.388,4-4.388a4.284,4.284,0,0,1,4.388,4.388h0ZM78.665,86.426l-.474.469H76.234a.46.46,0,0,1-.471-.469l-.548-1.959V84L76.7,82.978q.469-.469.469,0L79.131,84v.471l-.469,1.959Zm-27.5,28.987a.459.459,0,0,0,.469.469h3.921a1.634,1.634,0,0,0,1.019-.469l.94-3.448v-1.017l-3.45-2.431h-.94l-2.974,2.431c-.471,0-.471.469-.471,1.017l1.488,3.448Z" transform="translate(0 -0.01)"/></svg>