<svg xmlns="http://www.w3.org/2000/svg" width="35.331" height="21.907" viewBox="0 0 35.331 21.907"><defs><style>.a{fill:#ff8900;}</style></defs><path class="a" d="M184.807,163.7a20.4,20.4,0,0,0-3.59-8.8,10.648,10.648,0,0,0-2.82-2.915,5.49,5.49,0,0,0-2.845-.911.793.793,0,0,1,.026.2v3.545a.791.791,0,0,1-.791.791H159.771a.791.791,0,0,1-.791-.791v-3.545a.81.81,0,0,1,.057-.3h-.057a1.86,1.86,0,0,0-.538.124c-.194.063-.386.131-.572.2a10.118,10.118,0,0,0-1.113.491,10.011,10.011,0,0,0-1.674,1.11,10.578,10.578,0,0,0-1.442,1.448c-.11.131-.215.268-.318.4a18.626,18.626,0,0,0-2.586,5.215c-1.06,3.134-1.65,6.632-.439,9.705.643,1.625,2.02,3.179,3.77,3.183,1.847,0,3.2-1.643,4.511-2.947,3.126-3.1,7.886-4.88,12.059-3.466a13.594,13.594,0,0,1,5.131,3.449,18.951,18.951,0,0,0,2.208,2.077,4.177,4.177,0,0,0,2.83.9,4.506,4.506,0,0,0,3.322-2.875,11.585,11.585,0,0,0,.678-6.286ZM160.6,161.4h-1.7v1.7a.694.694,0,0,1-1.389,0v-1.7h-1.7a.694.694,0,1,1,0-1.389h1.7v-1.7a.694.694,0,1,1,1.389,0v1.7h1.7a.694.694,0,0,1,0,1.389Zm14.983-5.309a1.629,1.629,0,1,1-1.629,1.629A1.629,1.629,0,0,1,175.579,156.1Zm-4.4,4.4a1.629,1.629,0,1,1,1.629,1.629A1.629,1.629,0,0,1,171.184,160.491Zm4.4,4.445a1.629,1.629,0,1,1,1.629-1.629A1.629,1.629,0,0,1,175.579,164.936Zm2.767-2.812a1.629,1.629,0,1,1,1.629-1.629A1.629,1.629,0,0,1,178.346,162.123Z" transform="translate(-149.624 -150.97)"/></svg>