<svg xmlns="http://www.w3.org/2000/svg" width="65.596" height="40.672" viewBox="0 0 65.596 40.672"><defs><style>.a{fill:#ff8900;}</style></defs><path class="a" d="M214.946,174.6a37.868,37.868,0,0,0-6.665-16.346,19.77,19.77,0,0,0-5.235-5.412,10.193,10.193,0,0,0-5.281-1.691,1.472,1.472,0,0,1,.048.365V158.1a1.468,1.468,0,0,1-1.468,1.468H168.463a1.468,1.468,0,0,1-1.468-1.468v-6.582a1.5,1.5,0,0,1,.106-.548l-.106,0a3.452,3.452,0,0,0-1,.229c-.36.117-.716.243-1.062.374a18.788,18.788,0,0,0-2.067.911,18.589,18.589,0,0,0-3.109,2.06,19.64,19.64,0,0,0-2.677,2.689c-.2.243-.4.5-.59.748a34.581,34.581,0,0,0-4.8,9.681c-1.968,5.818-3.063,12.313-.814,18.019,1.193,3.017,3.751,5.9,7,5.91,3.43.007,5.942-3.051,8.376-5.472,5.8-5.758,14.642-9.06,22.389-6.435a25.238,25.238,0,0,1,9.526,6.4,35.183,35.183,0,0,0,4.1,3.857,7.754,7.754,0,0,0,5.254,1.666c2.833-.3,5.006-2.742,6.167-5.339a21.51,21.51,0,0,0,1.26-11.671ZM170,170.342h-3.164v3.164a1.289,1.289,0,1,1-2.579,0v-3.164h-3.164a1.289,1.289,0,1,1,0-2.579h3.164V164.6a1.289,1.289,0,1,1,2.579,0v3.164H170a1.289,1.289,0,0,1,0,2.579Zm27.817-9.856a3.024,3.024,0,1,1-3.024,3.024A3.025,3.025,0,0,1,197.812,160.486Zm-8.16,8.16a3.024,3.024,0,1,1,3.024,3.024A3.025,3.025,0,0,1,189.652,168.647Zm8.16,8.252a3.024,3.024,0,1,1,3.024-3.024A3.025,3.025,0,0,1,197.812,176.9Zm5.137-5.222a3.024,3.024,0,1,1,3.024-3.024A3.025,3.025,0,0,1,202.949,171.678Z" transform="translate(-149.624 -150.97)"/></svg>