<svg xmlns="http://www.w3.org/2000/svg" width="24.795" height="24.575" viewBox="0 0 24.795 24.575"><defs><style>.a{fill:#ff8900;}</style></defs><path class="a" d="M19.66.971,19.317.634a2.24,2.24,0,0,0-3.13,0L14.7,2.1,1.888,14.715a.072.072,0,0,1-.009.012.3.3,0,0,0-.058.087s-.006.009-.008.014,0,0,0,0l-.9,2.359-.9,2.359A.325.325,0,0,0,.1,19.9a.34.34,0,0,0,.353.076l2.4-.882,2.4-.882,0,0,.011-.006a.333.333,0,0,0,.091-.06.079.079,0,0,0,.011-.007L18.169,5.523,19.66,4.055a2.156,2.156,0,0,0,0-3.084Zm-3.721.837-.534.526h0ZM14.933,2.8h0L2.6,14.948,14.932,2.8ZM2.813,18.4l-1.2-1.179.638-1.682,2.267,2.231L2.814,18.4Zm2.312-.965L17.461,5.29h0L5.124,17.438ZM17.933,4.825h0l.534-.526ZM19.187,3.59l-.248.244-2.528-2.49.248-.244a1.564,1.564,0,0,1,2.186,0l.343.338a1.5,1.5,0,0,1,0,2.152Z" transform="matrix(0.966, -0.259, 0.259, 0.966, 0.003, 5.26)"/></svg>