<svg xmlns="http://www.w3.org/2000/svg" width="35.148" height="16.591" viewBox="0 0 35.148 16.591"><defs><style>.a{fill:#ff8900;}</style></defs><g transform="translate(-54.49 -119.46)"><path class="a" d="M173.05,119.46v16.591h11.534V119.46Zm6.549,13.478h-1.233v-2.3c0-.1,0-.219.006-.343s.008-.237.013-.34c-.055.059-.1.111-.151.153s-.091.083-.132.118l-.51.4-.629-.727,1.542-1.181H179.6v4.219Z" transform="translate(-106.753)"/><path class="a" d="M291.61,196.26V205.2h11.534V196.26Zm7.506,5.255a1.334,1.334,0,0,1-.613.461,2.809,2.809,0,0,1-1.064.171,3.874,3.874,0,0,1-.743-.062,4.106,4.106,0,0,1-.6-.168v-.945a2.683,2.683,0,0,0,.6.21,2.612,2.612,0,0,0,.567.068,1.1,1.1,0,0,0,.608-.119.4.4,0,0,0,.082-.561.532.532,0,0,0-.287-.156,2.375,2.375,0,0,0-.592-.056H296.8V199.5h.283a1.5,1.5,0,0,0,.721-.124.366.366,0,0,0,.2-.319.267.267,0,0,0-.138-.251.732.732,0,0,0-.364-.08,1.337,1.337,0,0,0-.383.053,2.3,2.3,0,0,0-.309.116c-.088.042-.155.076-.2.1l-.5-.762a2.684,2.684,0,0,1,1.585-.426,1.984,1.984,0,0,1,1.091.26.811.811,0,0,1,.4.715.932.932,0,0,1-.138.517,1.131,1.131,0,0,1-.366.355,1.874,1.874,0,0,1-.491.21v.018a1.588,1.588,0,0,1,.834.307.847.847,0,0,1,.293.691,1.1,1.1,0,0,1-.2.632Z" transform="translate(-213.505 -69.151)"/><path class="a" d="M54.49,167.46v11.81H66.024V167.46Zm7.422,8.585h-3.26v-.75l1.095-1.04q.339-.336.529-.538a1.865,1.865,0,0,0,.268-.343.6.6,0,0,0,.079-.3.3.3,0,0,0-.129-.272.556.556,0,0,0-.3-.083.917.917,0,0,0-.428.113,3.09,3.09,0,0,0-.491.337l-.667-.733c.134-.111.277-.217.428-.322a1.978,1.978,0,0,1,.538-.254,2.567,2.567,0,0,1,.758-.1,1.93,1.93,0,0,1,.79.15,1.252,1.252,0,0,1,.522.41.993.993,0,0,1,.185.591,1.455,1.455,0,0,1-.141.653,2.237,2.237,0,0,1-.428.576q-.287.29-.714.65l-.328.278v.03h1.7v.939Z" transform="translate(0 -43.22)"/></g></svg>