<svg xmlns="http://www.w3.org/2000/svg" width="25.988" height="25.992" viewBox="0 0 25.988 25.992"><defs><style>.a{fill:#ff8900;}</style></defs><g transform="translate(-0.527 -76.41)"><path class="a" d="M17.8,102.736a.922.922,0,0,1-.793-.481l-.662-1.146a2.357,2.357,0,0,0-2.035-1.175h-.764a2.357,2.357,0,0,0-2.035,1.175l-.657,1.138a.928.928,0,0,1-.8.488.841.841,0,0,1-.258-.041,13.375,13.375,0,0,1-2.063-.855.891.891,0,0,1-.432-1.048l.344-1.284a2.36,2.36,0,0,0-.608-2.271L6.5,96.7a2.351,2.351,0,0,0-2.271-.608l-1.284.344a.988.988,0,0,1-.26.035A.878.878,0,0,1,1.9,96a13.513,13.513,0,0,1-.855-2.063.9.9,0,0,1,.441-1.051l1.146-.662A2.357,2.357,0,0,0,3.8,90.189v-.764a2.357,2.357,0,0,0-1.175-2.035L1.49,86.732a.9.9,0,0,1-.447-1.055A13.512,13.512,0,0,1,1.9,83.615a.878.878,0,0,1,.789-.468,1,1,0,0,1,.26.035l1.284.344a2.361,2.361,0,0,0,.608.08A2.335,2.335,0,0,0,6.5,82.918l.54-.54a2.356,2.356,0,0,0,.608-2.271L7.3,78.824a.892.892,0,0,1,.432-1.048A13.514,13.514,0,0,1,9.8,76.921a.834.834,0,0,1,.258-.041.922.922,0,0,1,.793.481l.662,1.146a2.358,2.358,0,0,0,2.035,1.175h.764a2.357,2.357,0,0,0,2.035-1.175L17,77.369a.931.931,0,0,1,.8-.488.841.841,0,0,1,.258.041,13.513,13.513,0,0,1,2.063.855.891.891,0,0,1,.432,1.048l-.344,1.284a2.359,2.359,0,0,0,.608,2.271l.54.54a2.348,2.348,0,0,0,2.269.608l1.284-.344a.988.988,0,0,1,.26-.035.877.877,0,0,1,.789.468,13.57,13.57,0,0,1,.855,2.063.9.9,0,0,1-.441,1.051l-1.146.662a2.358,2.358,0,0,0-1.175,2.035v.764a2.357,2.357,0,0,0,1.175,2.035l1.138.657a.9.9,0,0,1,.447,1.055A13.377,13.377,0,0,1,25.958,96a.878.878,0,0,1-.789.468h0a1,1,0,0,1-.26-.035l-1.284-.344a2.351,2.351,0,0,0-2.271.608l-.54.54a2.356,2.356,0,0,0-.608,2.271l.344,1.284a.891.891,0,0,1-.432,1.048,13.57,13.57,0,0,1-2.063.855.834.834,0,0,1-.258.041ZM13.928,84.675a5.134,5.134,0,1,0,5.134,5.134A5.14,5.14,0,0,0,13.928,84.675Z" transform="translate(-0.41 -0.406)"/><path class="a" d="M17.39,76.546a.781.781,0,0,1,.237.037,13.388,13.388,0,0,1,2.053.851.822.822,0,0,1,.4.969l0,.014-.34,1.27a2.424,2.424,0,0,0,.625,2.336l.54.54a2.4,2.4,0,0,0,1.711.708,2.373,2.373,0,0,0,.625-.083l1.27-.34.014,0a.909.909,0,0,1,.241-.033.81.81,0,0,1,.729.431,13.525,13.525,0,0,1,.851,2.053.829.829,0,0,1-.409.971l-.008,0-1.138.657a2.424,2.424,0,0,0-1.209,2.094v.764a2.425,2.425,0,0,0,1.209,2.094l1.138.657.008,0a.829.829,0,0,1,.409.971,13.388,13.388,0,0,1-.851,2.053.812.812,0,0,1-.729.431.9.9,0,0,1-.241-.033l-.014,0-1.27-.34a2.431,2.431,0,0,0-.625-.083,2.4,2.4,0,0,0-1.711.708l-.54.54a2.424,2.424,0,0,0-.625,2.336l.34,1.27,0,.014a.824.824,0,0,1-.4.969,13.524,13.524,0,0,1-2.053.851.781.781,0,0,1-.237.037.858.858,0,0,1-.734-.446l0-.008L16,100.669A2.424,2.424,0,0,0,13.9,99.46h-.764a2.425,2.425,0,0,0-2.094,1.209l-.657,1.138,0,.008a.855.855,0,0,1-.734.446.781.781,0,0,1-.237-.037,13.387,13.387,0,0,1-2.053-.851.822.822,0,0,1-.4-.969l0-.014.34-1.27a2.424,2.424,0,0,0-.625-2.336l-.54-.54a2.4,2.4,0,0,0-1.711-.708,2.373,2.373,0,0,0-.625.083l-1.27.34-.014,0A.908.908,0,0,1,2.28,96a.81.81,0,0,1-.729-.431A13.525,13.525,0,0,1,.7,93.511a.829.829,0,0,1,.409-.971l.008,0,1.138-.657a2.424,2.424,0,0,0,1.209-2.094v-.764a2.425,2.425,0,0,0-1.209-2.094l-1.138-.657-.008,0A.829.829,0,0,1,.7,85.3a13.387,13.387,0,0,1,.851-2.053.812.812,0,0,1,.729-.431.919.919,0,0,1,.242.033l.014,0,1.27.34a2.431,2.431,0,0,0,.625.083,2.4,2.4,0,0,0,1.711-.708l.54-.54a2.424,2.424,0,0,0,.625-2.336l-.34-1.27,0-.014a.823.823,0,0,1,.4-.969,13.525,13.525,0,0,1,2.053-.851.781.781,0,0,1,.237-.037.858.858,0,0,1,.734.446l0,.008.657,1.138a2.424,2.424,0,0,0,2.094,1.209H13.9A2.425,2.425,0,0,0,16,78.138L16.655,77l0-.007a.855.855,0,0,1,.734-.446h0M13.52,94.607a5.2,5.2,0,1,0-5.2-5.2,5.208,5.208,0,0,0,5.2,5.2m3.872-18.2a1,1,0,0,0-.853.515s0,0,0,.007L15.88,78.07A2.283,2.283,0,0,1,13.9,79.211h-.764a2.283,2.283,0,0,1-1.977-1.141L10.5,76.932l0-.007a1,1,0,0,0-.853-.515.9.9,0,0,0-.279.044,13.418,13.418,0,0,0-2.074.859.964.964,0,0,0-.466,1.127.043.043,0,0,0,0,.012l.34,1.27a2.285,2.285,0,0,1-.59,2.205l-.54.54a2.282,2.282,0,0,1-2.2.591l-1.27-.34-.012,0a1.025,1.025,0,0,0-.277-.038.945.945,0,0,0-.85.5A13.417,13.417,0,0,0,.57,85.255a.967.967,0,0,0,.472,1.131s0,0,.007,0l1.138.657a2.283,2.283,0,0,1,1.141,1.977v.764a2.283,2.283,0,0,1-1.141,1.977l-1.138.657-.007,0A.971.971,0,0,0,.57,93.557a13.417,13.417,0,0,0,.859,2.074.945.945,0,0,0,.85.5,1.026,1.026,0,0,0,.277-.038.043.043,0,0,0,.012,0l1.27-.34a2.314,2.314,0,0,1,.59-.078,2.284,2.284,0,0,1,1.614.669l.54.54a2.281,2.281,0,0,1,.59,2.205l-.34,1.27,0,.012A.962.962,0,0,0,7.3,101.5a13.419,13.419,0,0,0,2.074.859.9.9,0,0,0,.279.044,1,1,0,0,0,.853-.515s0,0,0-.007l.657-1.138A2.283,2.283,0,0,1,13.138,99.6H13.9a2.283,2.283,0,0,1,1.977,1.141l.657,1.138,0,.007a1,1,0,0,0,.853.515.9.9,0,0,0,.279-.044,13.419,13.419,0,0,0,2.074-.859.964.964,0,0,0,.466-1.127.043.043,0,0,0,0-.012l-.34-1.27a2.286,2.286,0,0,1,.59-2.205l.54-.54a2.282,2.282,0,0,1,2.2-.591l1.27.34.012,0a1.026,1.026,0,0,0,.277.038.945.945,0,0,0,.85-.5,13.417,13.417,0,0,0,.859-2.074A.967.967,0,0,0,26,92.426s0,0-.007,0l-1.138-.657a2.283,2.283,0,0,1-1.141-1.977v-.764a2.283,2.283,0,0,1,1.141-1.977l1.138-.657.007,0a.971.971,0,0,0,.472-1.131,13.417,13.417,0,0,0-.859-2.074.945.945,0,0,0-.85-.5,1.025,1.025,0,0,0-.277.038.043.043,0,0,0-.012,0l-1.27.34a2.315,2.315,0,0,1-.59.077A2.284,2.284,0,0,1,21,82.468l-.54-.54a2.281,2.281,0,0,1-.59-2.205l.34-1.27,0-.012a.962.962,0,0,0-.466-1.127,13.417,13.417,0,0,0-2.074-.859.9.9,0,0,0-.279-.044ZM13.52,94.471A5.066,5.066,0,1,1,18.587,89.4a5.066,5.066,0,0,1-5.066,5.066Z" transform="translate(0)"/></g></svg>